<?xml version="1.0" encoding="UTF-8"?>
<!DOCTYPE svg PUBLIC "-//W3C//DTD SVG 1.1//EN" "http://www.w3.org/Graphics/SVG/1.1/DTD/svg11.dtd">
<!-- Creator: CorelDRAW 2019 (64-Bit) -->
<svg xmlns="http://www.w3.org/2000/svg" xml:space="preserve" width="1600px" height="1600px" version="1.1" style="shape-rendering:geometricPrecision; text-rendering:geometricPrecision; image-rendering:optimizeQuality; fill-rule:evenodd; clip-rule:evenodd"
viewBox="0 0 2189.29 2189.29"
 xmlns:xlink="http://www.w3.org/1999/xlink"
 xmlns:xodm="http://www.corel.com/coreldraw/odm/2003">
 <defs>
  <style type="text/css">
   <![CDATA[
    .fil0 {fill:black}
    .fil1 {fill:black}
   ]]>
  </style>
 </defs>
 <g id="Layer_x0020_1">
  <metadata id="CorelCorpID_0Corel-Layer"/>
  <path class="fil0" d="M1329.82 632.84c0,35.19 20.85,44.36 45.97,69.49l109.04 109.03c57.83,57.83 59.56,66.68 111.17,14.97l538.79 -538.75c32.5,-32.1 51.06,-72.3 54.5,-112.74l0 -27.4c-3.05,-35.41 -18.09,-69.61 -45.94,-97.22 -29.86,-29.61 -64.79,-46.09 -100.3,-50.22l-35.87 0c-37.25,4.32 -73.45,22.06 -103.35,52.34l-534.45 534.54c-9.28,9.27 -39.56,33.03 -39.56,45.96zm-731.19 987.75c0,4.84 60.72,63.26 68.42,68.42 29.1,-124.94 -8.23,-139.94 127,-159.5 21.64,-3.13 62.88,-11.54 86.8,-11.54 9.14,-39.26 12.7,-86.68 19.49,-130.17 9.74,-62.36 18.61,-59.74 54.27,-95.39 36.72,-36.72 438.82,-434.38 452.18,-454.32l-58.91 -56.55c-16.82,24.66 -74.09,76.24 -98.23,100.38 -127.46,127.45 -268.38,273.1 -395.66,395.39 -21.43,20.6 -15.5,22.67 -25.52,72.83 -21.44,107.25 -33.28,98.99 -181.1,118.21 -24.19,3.15 -26.47,-2.33 -31.64,15.4l-17.1 136.84z"/>
  <path class="fil0" d="M971.44 1394.05c-7.84,39.9 2.56,70.19 -23.59,119.21 -7.06,13.22 -11.75,71.99 -90.81,83.53 -33.77,4.92 -70.24,8.27 -100.19,15.25 -10.75,46.11 -1.63,153.93 -89.8,153.93 -39.44,0 -65.36,-33.28 -86.59,-54.52 -75.46,-75.46 -63.74,-62.84 -46.2,-189.45 13.9,-100.35 12.75,-115.33 110.13,-129.32 30,-4.31 73.82,-8.81 103.9,-15.82 0,-22.13 27.62,-117.25 42.76,-141.11 30.82,-48.54 360.41,-348.85 367.74,-376.28l-1026.26 -0.03c-46.8,-0.27 -85.96,9.67 -110.47,47.74 -9.35,14.53 -22.06,36.81 -22.06,59.19l0 1116.02c0,52.29 54.61,106.9 106.9,106.9l1039.06 0c39.55,0 72.95,-31.24 89.17,-56.21 22.6,-34.79 17.73,-76.95 17.73,-131.93l0 -897.95c-18.67,12.5 -198.41,196.27 -236.25,234.11 -33.79,33.78 -42.51,43.2 -45.17,56.74z"/>
  <path class="fil1" d="M626.28 381.64c-305.12,0 -314.13,202.16 -314.13,400.86l-161.99 0c0,-269.04 92.96,-573.32 476.12,-573.32 383.16,0 476.13,304.28 476.13,573.32l-161.99 0c0,-198.7 -9.01,-400.86 -314.14,-400.86z"/>
 </g>
</svg>
