<?xml version="1.0" encoding="UTF-8"?>
<!DOCTYPE svg PUBLIC "-//W3C//DTD SVG 1.1//EN" "http://www.w3.org/Graphics/SVG/1.1/DTD/svg11.dtd">
<!-- Creator: CorelDRAW 2019 (64-Bit) -->
<svg xmlns="http://www.w3.org/2000/svg" xml:space="preserve" width="1181px" height="732px" version="1.1" style="shape-rendering:geometricPrecision; text-rendering:geometricPrecision; image-rendering:optimizeQuality; fill-rule:evenodd; clip-rule:evenodd"
viewBox="0 0 1181 732.22"
 xmlns:xlink="http://www.w3.org/1999/xlink"
 xmlns:xodm="http://www.corel.com/coreldraw/odm/2003">
 <defs>
  <style type="text/css">
   <![CDATA[
    .fil2 {fill:none}
    .fil0 {fill:black}
    .fil1 {fill:black}
   ]]>
  </style>
 </defs>
 <g id="Layer_x0020_1">
  <metadata id="CorelCorpID_0Corel-Layer"/>
  <path class="fil0" d="M977.63 -149.08c0,25.72 15.23,32.42 33.59,50.77l79.67 79.68c42.25,42.25 43.51,48.71 81.23,10.93l393.68 -393.65c23.74,-23.45 37.31,-52.83 39.82,-82.37l0 -20.03c-2.23,-25.87 -13.22,-50.86 -33.57,-71.03 -21.82,-21.63 -47.34,-33.68 -73.28,-36.7l-26.22 0c-27.21,3.16 -53.66,16.12 -75.51,38.25l-390.51 390.57c-6.78,6.77 -28.9,24.14 -28.9,33.58zm-534.26 721.73c0,3.54 44.36,46.22 49.99,49.99 21.26,-91.29 -6.02,-102.25 92.79,-116.54 15.82,-2.29 45.95,-8.44 63.42,-8.44 6.69,-28.68 9.28,-63.33 14.25,-95.11 7.11,-45.56 13.6,-43.65 39.65,-69.7 26.83,-26.83 320.64,-317.38 330.4,-331.96l-43.05 -41.32c-12.29,18.02 -54.14,55.71 -71.77,73.35 -93.13,93.13 -196.1,199.55 -289.1,288.9 -15.66,15.05 -11.33,16.57 -18.65,53.21 -15.66,78.37 -24.31,72.33 -132.32,86.38 -17.68,2.3 -19.34,-1.7 -23.12,11.25l-12.49 99.99z"/>
  <path class="fil0" d="M715.76 407.12c-5.73,29.15 1.88,51.29 -17.23,87.1 -5.16,9.66 -8.59,52.61 -66.35,61.03 -24.68,3.61 -51.33,6.05 -73.21,11.15 -7.85,33.69 -1.19,112.47 -65.61,112.47 -28.82,0 -47.76,-24.32 -63.27,-39.83 -55.14,-55.14 -46.58,-45.92 -33.76,-138.43 10.16,-73.32 9.32,-84.27 80.47,-94.49 21.92,-3.15 53.94,-6.44 75.92,-11.56 0,-16.17 20.18,-85.67 31.24,-103.1 22.52,-35.47 263.34,-254.9 268.7,-274.94l-749.87 -0.03c-34.19,-0.19 -62.8,7.07 -80.71,34.89 -6.83,10.61 -16.12,26.89 -16.12,43.24l0 815.46c0,38.2 39.9,78.1 78.11,78.1l759.21 0c28.9,0 53.3,-22.82 65.16,-41.07 16.51,-25.42 12.95,-56.23 12.95,-96.4l0 -656.11c-13.64,9.13 -144.97,143.41 -172.62,171.06 -24.69,24.69 -31.06,31.57 -33.01,41.46z"/>
  <path class="fil1" d="M463.57 -332.62c-222.95,0 -229.53,147.71 -229.53,292.9l-118.36 0c0,-196.59 67.93,-418.92 347.89,-418.92 279.96,0 347.89,222.33 347.89,418.92l-118.36 0c0,-145.19 -6.58,-292.9 -229.53,-292.9z"/>
  <rect class="fil2" x="-398.67" y="-820.62" width="2025.37" height="2025.37"/>
 </g>
</svg>
